<?xml version="1.0" encoding="utf-8"?>
<!-- Generator: $$$/GeneralStr/196=Adobe Illustrator 27.6.0, SVG Export Plug-In . SVG Version: 6.00 Build 0)  -->
<svg version="1.1" id="Ebene_2" xmlns="http://www.w3.org/2000/svg" xmlns:xlink="http://www.w3.org/1999/xlink" x="0px" y="0px"
	 viewBox="0 0 131 132.8" style="enable-background:new 0 0 131 132.8;" xml:space="preserve">
<style type="text/css">
	.st0{fill:#FFFFFF;}
</style>
<path class="st0" d="M10.4,110.5c0-3.2,0.9-4.8,1.7-6.3c0.8-1.4,1.5-2.7,1.5-5.4c0-2.8-0.4-4.2-0.7-5.6c-0.3-1.3-0.7-2.6-0.8-5
	c0-0.7-0.6-1.1-1.3-1C3.7,88.3,0,95.5,0,104.6c0,9.1,3.6,16.2,10.8,17.4c0.7,0.1,1.3-0.4,1.3-1.1c-0.1-2-0.4-3.1-0.8-4.3
	C10.9,115.1,10.4,113.5,10.4,110.5z"/>
<path class="st0" d="M26,104.6c0-9.1-3.5-16.3-10.7-17.5c-0.7-0.1-1.3,0.4-1.3,1.1c0.1,2.1,0.4,3.2,0.7,4.4c0.4,1.5,0.8,3.1,0.8,6.1
	c0,3.2-0.9,4.8-1.7,6.3c-0.8,1.4-1.5,2.7-1.5,5.4c0,2.8,0.4,4.2,0.8,5.6c0.4,1.3,0.8,2.6,0.9,4.9c0,0.7,0.6,1.1,1.3,1
	C22.5,120.8,26,113.7,26,104.6z"/>
<polygon class="st0" points="65.3,50 72.2,65.7 90.7,23.3 125.1,23.3 130.6,10.7 82.5,10.7 "/>
<polygon class="st0" points="88,108 82.5,120.6 48.1,120.6 0,10.7 48.1,10.7 53.6,23.3 19.3,23.3 56.4,108 "/>
</svg>
