<?xml version="1.0" encoding="UTF-8"?>
<svg id="a" data-name="LOGO DESIGN" xmlns="http://www.w3.org/2000/svg" viewBox="0 0 593.24 101.01">
  <path d="M58.18,0C26.05,0,0,26.05,0,58.18v42.84h94.65c32.13,0,58.18-26.05,58.18-58.18V0H58.18ZM62.94,57.28c0,5.88-.33,9.95-.99,12.23-.66,2.28-1.93,4.47-3.79,6.59-1.87,2.12-4.02,3.69-6.45,4.71-2.44,1.02-5.27,1.53-8.5,1.53-4.24,0-7.92-.97-11.06-2.92-3.14-1.95-5.38-4.38-6.73-7.31-1.35-2.93-2.03-7.87-2.03-14.83v-29.24c0-3.08,2.5-5.58,5.58-5.58s5.58,2.5,5.58,5.58v32.19c0,3.25.28,5.55.85,6.9.57,1.35,1.51,2.43,2.82,3.23,1.31.81,2.89,1.21,4.74,1.21,1.96,0,3.65-.45,5.06-1.35,1.42-.9,2.4-2.04,2.94-3.43.54-1.39.81-4.04.81-7.95v-30.8c0-3.08,2.5-5.58,5.58-5.58s5.58,2.5,5.58,5.58v29.24ZM133.61,28.97l-10.5,46.61c-.7,3.09-3.44,5.29-6.61,5.29h-.12c-3.03,0-5.69-2.01-6.52-4.92l-9.36-32.84-9.18,32.81c-.82,2.93-3.49,4.95-6.53,4.95s-5.91-2.19-6.61-5.28l-10.55-46.61c-.76-3.34,1.78-6.51,5.2-6.51h0c2.49,0,4.65,1.73,5.2,4.16l7.5,33.13,9.18-32.82c.74-2.64,3.14-4.46,5.88-4.46s5.13,1.81,5.87,4.44l9.32,32.85,7.43-33.12c.55-2.43,2.71-4.17,5.2-4.17,3.42,0,5.95,3.17,5.2,6.5Z" style="fill: #134b24; stroke-width: 0px;"/>
  <g>
    <path d="M179.84,89.03c-1.19,0-2.23-.18-3.13-.53-.9-.35-1.77-.91-2.6-1.69-.11-.1-.2-.22-.28-.36s-.11-.3-.11-.46c0-.26.09-.49.28-.69.18-.2.41-.3.69-.3.22,0,.43.09.6.26.63.61,1.3,1.08,2.03,1.4.73.32,1.55.48,2.47.48.71,0,1.34-.11,1.9-.34.56-.22,1.01-.54,1.35-.94.34-.4.51-.87.51-1.4,0-.64-.18-1.17-.54-1.59-.36-.42-.86-.76-1.49-1.04-.63-.27-1.37-.51-2.2-.72-.74-.18-1.42-.39-2.03-.64-.62-.25-1.16-.56-1.61-.94-.46-.38-.81-.83-1.06-1.37-.25-.54-.37-1.18-.37-1.91,0-.91.24-1.71.72-2.4.48-.68,1.15-1.22,2.01-1.6.86-.39,1.84-.58,2.95-.58.98,0,1.91.16,2.78.48.87.32,1.58.76,2.11,1.32.32.3.48.61.48.91,0,.23-.1.44-.3.64-.2.2-.43.3-.69.3-.18,0-.34-.06-.48-.17-.27-.3-.62-.58-1.05-.82-.43-.24-.88-.43-1.37-.58-.49-.14-.98-.22-1.48-.22-.74,0-1.39.11-1.95.32s-1,.52-1.31.9c-.31.39-.47.85-.47,1.4,0,.61.18,1.11.53,1.51.35.39.83.71,1.42.96.59.25,1.25.47,1.97.66.79.19,1.51.41,2.18.66.67.25,1.24.56,1.72.93.48.37.85.84,1.12,1.41s.4,1.27.4,2.11c0,.88-.25,1.67-.75,2.36-.5.69-1.18,1.24-2.03,1.64-.86.4-1.83.6-2.9.6Z" style="fill: #134b24; stroke-width: 0px;"/>
    <path d="M198.89,76.15c1.09,0,2.07.27,2.94.82.87.55,1.55,1.3,2.06,2.26s.76,2.07.76,3.32-.25,2.34-.76,3.31c-.51.97-1.19,1.73-2.05,2.29-.86.55-1.83.83-2.9.83-.59,0-1.15-.09-1.67-.28-.52-.18-1-.43-1.42-.72-.43-.3-.78-.63-1.07-1-.29-.37-.5-.75-.63-1.13l.53-.31v7.08c0,.27-.09.51-.26.7-.18.19-.41.29-.7.29-.27,0-.5-.09-.69-.28-.18-.18-.28-.42-.28-.71v-15.36c0-.29.09-.53.28-.71.18-.18.41-.28.69-.28.29,0,.52.09.7.28.18.18.26.42.26.71v2.12l-.36-.19c.11-.4.31-.79.59-1.16.28-.37.63-.69,1.04-.98s.87-.5,1.37-.66,1.03-.24,1.58-.24ZM198.67,77.93c-.8,0-1.51.2-2.13.6-.62.4-1.1.95-1.44,1.64-.35.69-.52,1.48-.52,2.38s.17,1.68.52,2.38c.34.71.83,1.26,1.44,1.66.62.4,1.33.6,2.13.6s1.51-.2,2.12-.6c.61-.4,1.09-.95,1.44-1.66.35-.71.53-1.5.53-2.38s-.18-1.69-.53-2.38c-.35-.69-.84-1.24-1.44-1.64-.61-.4-1.32-.6-2.12-.6Z" style="fill: #134b24; stroke-width: 0px;"/>
    <path d="M217.62,89.03c-1.3,0-2.43-.27-3.4-.82-.96-.55-1.71-1.3-2.24-2.25-.53-.95-.79-2.06-.79-3.31,0-1.4.28-2.59.83-3.58.55-.99,1.28-1.74,2.17-2.26.89-.52,1.83-.78,2.83-.78.74,0,1.45.14,2.14.41.69.27,1.3.67,1.83,1.2.53.53.95,1.16,1.28,1.88.32.72.49,1.54.51,2.46,0,.26-.1.47-.29.64s-.42.25-.67.25h-9.51l-.43-1.66h9.25l-.39.34v-.53c-.05-.66-.26-1.22-.64-1.7s-.84-.84-1.37-1.1c-.54-.26-1.1-.39-1.7-.39-.48,0-.96.09-1.43.26-.47.18-.9.45-1.28.82-.38.37-.68.85-.91,1.44s-.35,1.31-.35,2.14c0,.93.19,1.75.57,2.46.38.71.9,1.26,1.58,1.67.67.41,1.46.61,2.36.61.56,0,1.05-.07,1.47-.22.42-.14.77-.32,1.07-.54.3-.22.55-.44.76-.66.21-.14.42-.22.63-.22.22,0,.42.08.58.24s.24.35.24.58c0,.27-.13.52-.39.75-.47.5-1.08.93-1.84,1.3-.76.37-1.58.55-2.44.55Z" style="fill: #134b24; stroke-width: 0px;"/>
    <path d="M240.26,70.98c.27,0,.5.09.69.28.18.18.28.42.28.71v15.84c0,.27-.09.51-.28.7-.18.19-.41.29-.69.29-.29,0-.53-.1-.71-.29-.18-.19-.28-.43-.28-.7v-2.29l.46-.14c0,.37-.12.77-.35,1.19-.23.43-.56.83-.99,1.2-.43.38-.92.68-1.48.91-.56.23-1.17.35-1.83.35-1.09,0-2.07-.28-2.94-.84-.87-.56-1.55-1.33-2.06-2.31s-.76-2.1-.76-3.35.25-2.39.76-3.37,1.19-1.75,2.05-2.3c.86-.55,1.83-.83,2.9-.83.67,0,1.3.11,1.89.34.59.23,1.1.53,1.55.91.45.39.8.81,1.05,1.28s.37.93.37,1.4l-.63-.14v-7.85c0-.27.09-.51.28-.7.18-.19.42-.29.71-.29ZM235.29,87.25c.8,0,1.51-.2,2.12-.61.61-.41,1.09-.97,1.44-1.69.35-.71.53-1.52.53-2.42s-.18-1.71-.53-2.42c-.35-.71-.83-1.28-1.44-1.69-.61-.41-1.32-.61-2.12-.61s-1.49.2-2.11.61c-.62.41-1.1.97-1.46,1.69-.35.71-.53,1.52-.53,2.42s.18,1.68.53,2.4c.35.71.84,1.28,1.46,1.7.62.42,1.32.63,2.11.63Z" style="fill: #134b24; stroke-width: 0px;"/>
    <path d="M249.98,74.54c-.4,0-.7-.08-.89-.24-.19-.16-.29-.41-.29-.75v-.34c0-.34.1-.59.31-.75.21-.16.51-.24.89-.24s.67.08.87.24.29.41.29.75v.34c0,.34-.1.59-.3.75-.2.16-.49.24-.88.24ZM250.97,87.81c0,.27-.09.51-.28.7-.18.19-.41.29-.69.29-.29,0-.53-.1-.71-.29-.18-.19-.28-.43-.28-.7v-10.67c0-.27.09-.51.28-.7.18-.19.42-.29.71-.29.27,0,.5.1.69.29.18.19.28.43.28.7v10.67Z" style="fill: #134b24; stroke-width: 0px;"/>
    <path d="M258.29,76.42h5.66c.26,0,.47.09.64.26.17.18.25.39.25.65,0,.24-.08.45-.25.61s-.38.25-.64.25h-5.66c-.24,0-.45-.09-.64-.26s-.28-.39-.28-.63c0-.26.09-.47.28-.64s.4-.25.64-.25ZM260.82,73.14c.27,0,.5.1.67.29.18.19.26.43.26.7v11.61c0,.39.06.67.17.87.11.19.26.33.45.4.18.07.36.11.54.11.16,0,.3-.03.42-.08s.26-.08.42-.08.31.08.45.23c.14.15.2.35.2.59,0,.29-.17.53-.51.73-.34.2-.71.3-1.13.3-.22,0-.5-.02-.83-.05-.33-.03-.65-.14-.98-.31-.32-.18-.59-.47-.81-.88-.22-.41-.33-.98-.33-1.72v-11.7c0-.27.1-.51.29-.7s.43-.29.7-.29Z" style="fill: #134b24; stroke-width: 0px;"/>
    <path d="M272.71,74.54c-.4,0-.7-.08-.89-.24-.19-.16-.29-.41-.29-.75v-.34c0-.34.1-.59.31-.75.21-.16.51-.24.89-.24s.67.08.87.24.29.41.29.75v.34c0,.34-.1.59-.3.75-.2.16-.49.24-.88.24ZM273.7,87.81c0,.27-.09.51-.28.7-.18.19-.41.29-.69.29-.29,0-.53-.1-.71-.29-.18-.19-.28-.43-.28-.7v-10.67c0-.27.09-.51.28-.7.18-.19.42-.29.71-.29.27,0,.5.1.69.29.18.19.28.43.28.7v10.67Z" style="fill: #134b24; stroke-width: 0px;"/>
    <path d="M293.32,82.53c0,1.25-.28,2.37-.83,3.35-.55.98-1.3,1.75-2.24,2.31s-1.99.84-3.17.84-2.23-.28-3.18-.84c-.95-.56-1.7-1.33-2.25-2.31-.55-.98-.83-2.1-.83-3.35s.28-2.37.83-3.35c.55-.98,1.3-1.75,2.25-2.31.95-.56,2.01-.84,3.18-.84s2.23.28,3.17.84c.94.56,1.69,1.33,2.24,2.31.55.98.83,2.09.83,3.35ZM291.37,82.53c0-.93-.19-1.75-.57-2.44s-.89-1.25-1.54-1.66c-.65-.41-1.38-.61-2.18-.61s-1.55.2-2.2.61c-.65.41-1.17.96-1.55,1.66-.39.7-.58,1.51-.58,2.44s.19,1.73.58,2.43c.39.71.9,1.26,1.55,1.67.65.41,1.38.61,2.2.61s1.53-.2,2.18-.61c.65-.41,1.16-.97,1.54-1.67.38-.71.57-1.52.57-2.43Z" style="fill: #134b24; stroke-width: 0px;"/>
    <path d="M306.73,76.03c1.09,0,1.95.22,2.58.67s1.07,1.05,1.34,1.81c.26.75.4,1.61.4,2.55v6.74c0,.27-.09.51-.28.7-.18.19-.41.29-.69.29-.29,0-.52-.1-.7-.29-.18-.19-.27-.43-.27-.7v-6.69c0-.61-.09-1.16-.28-1.66s-.49-.89-.93-1.19c-.43-.3-1.01-.45-1.73-.45-.67,0-1.29.15-1.85.45-.56.3-1.01.69-1.35,1.19-.34.5-.51,1.05-.51,1.66v6.69c0,.27-.09.51-.28.7-.18.19-.41.29-.69.29s-.5-.1-.69-.29c-.18-.19-.28-.43-.28-.7v-10.47c0-.29.09-.53.28-.71.18-.18.41-.28.69-.28.29,0,.52.09.7.28.18.18.27.42.27.71v1.69l-.48.53c.08-.42.27-.84.55-1.26.29-.43.65-.81,1.08-1.14.43-.34.91-.61,1.44-.81.53-.2,1.08-.3,1.66-.3Z" style="fill: #134b24; stroke-width: 0px;"/>
    <path d="M318.22,86.82c-.13-.21-.19-.43-.18-.66,0-.23.14-.44.4-.61.18-.11.37-.16.59-.14.22.02.41.12.59.31.45.53.96.95,1.54,1.26.58.31,1.28.47,2.12.47.37-.02.75-.08,1.14-.19.39-.11.72-.31.99-.59.26-.28.4-.65.4-1.12s-.14-.81-.41-1.07c-.27-.26-.63-.48-1.07-.65-.44-.17-.91-.32-1.41-.45-.53-.14-1.05-.3-1.57-.48-.51-.18-.97-.41-1.38-.69-.41-.28-.74-.63-.99-1.06s-.37-.95-.37-1.58c0-.72.2-1.35.59-1.88.39-.53.92-.94,1.58-1.23s1.39-.43,2.19-.43c.45,0,.92.05,1.41.16.49.1.97.28,1.43.53.47.25.87.59,1.23,1.02.14.16.22.36.24.6.02.24-.09.46-.31.65-.18.13-.37.19-.59.18-.22,0-.4-.08-.54-.23-.35-.42-.78-.73-1.29-.95s-1.06-.32-1.67-.32c-.37,0-.74.06-1.11.18s-.68.31-.93.57-.37.62-.37,1.08c.02.43.16.79.43,1.06.27.27.64.49,1.11.66s.98.33,1.54.49c.51.13,1.01.28,1.48.45.47.17.9.39,1.29.66.39.27.69.62.91,1.05.22.43.34.96.34,1.6,0,.74-.21,1.38-.63,1.91-.42.54-.97.95-1.65,1.23-.68.28-1.42.42-2.2.42-.88,0-1.76-.16-2.62-.49-.87-.33-1.61-.9-2.24-1.72Z" style="fill: #134b24; stroke-width: 0px;"/>
    <path d="M339.89,76.03c.71,0,1.36.12,1.95.35.59.23,1.11.53,1.55.9.44.37.79.76,1.04,1.16.25.4.37.78.37,1.13l-.48-.29v-2.09c0-.27.09-.5.28-.69.18-.18.41-.28.69-.28.29,0,.53.09.71.28s.28.41.28.69v10.55c0,1.32-.28,2.41-.83,3.29-.55.88-1.3,1.52-2.23,1.95-.93.43-1.97.64-3.13.64-.48,0-1.01-.06-1.59-.18-.58-.12-1.09-.27-1.54-.46-.45-.18-.74-.37-.87-.57-.24-.18-.39-.36-.45-.55-.06-.19-.03-.39.08-.58.16-.22.35-.34.58-.34s.51.07.87.22c.16.05.4.13.71.24.31.11.67.21,1.06.3.39.09.78.13,1.17.13,1.36,0,2.41-.36,3.13-1.07.72-.71,1.08-1.66,1.08-2.83v-2.24l.27.12c-.1.45-.29.87-.58,1.25s-.65.73-1.07,1.02c-.43.3-.89.53-1.41.7-.51.17-1.04.25-1.59.25-1.12,0-2.13-.28-3.02-.84s-1.6-1.33-2.12-2.31c-.52-.98-.78-2.1-.78-3.35s.26-2.39.78-3.37c.52-.98,1.22-1.75,2.11-2.3.88-.55,1.88-.83,2.99-.83ZM340.16,77.81c-.82,0-1.55.2-2.2.61-.65.41-1.16.97-1.52,1.69-.36.71-.54,1.52-.54,2.42s.18,1.68.54,2.4c.36.71.87,1.28,1.52,1.7.65.42,1.38.63,2.2.63s1.57-.2,2.22-.61c.64-.41,1.15-.97,1.52-1.67.37-.71.55-1.52.55-2.43s-.18-1.73-.55-2.44c-.37-.71-.88-1.27-1.52-1.67-.64-.4-1.38-.6-2.22-.6Z" style="fill: #134b24; stroke-width: 0px;"/>
    <path d="M359.92,89.03c-1.3,0-2.43-.27-3.4-.82-.96-.55-1.71-1.3-2.24-2.25-.53-.95-.79-2.06-.79-3.31,0-1.4.28-2.59.83-3.58.55-.99,1.28-1.74,2.17-2.26.89-.52,1.83-.78,2.83-.78.74,0,1.45.14,2.14.41.69.27,1.3.67,1.83,1.2.53.53.95,1.16,1.28,1.88.32.72.49,1.54.51,2.46,0,.26-.1.47-.29.64s-.42.25-.67.25h-9.51l-.43-1.66h9.25l-.39.34v-.53c-.05-.66-.26-1.22-.64-1.7s-.84-.84-1.37-1.1c-.54-.26-1.1-.39-1.7-.39-.48,0-.96.09-1.43.26-.47.18-.9.45-1.28.82-.38.37-.68.85-.91,1.44s-.35,1.31-.35,2.14c0,.93.19,1.75.57,2.46.38.71.9,1.26,1.58,1.67.67.41,1.46.61,2.36.61.56,0,1.05-.07,1.47-.22.42-.14.77-.32,1.07-.54.3-.22.55-.44.76-.66.21-.14.42-.22.63-.22.22,0,.42.08.58.24s.24.35.24.58c0,.27-.13.52-.39.75-.47.5-1.08.93-1.84,1.3-.76.37-1.58.55-2.44.55Z" style="fill: #134b24; stroke-width: 0px;"/>
    <path d="M371.58,86.82c-.13-.21-.19-.43-.18-.66,0-.23.14-.44.4-.61.18-.11.37-.16.59-.14.22.02.41.12.59.31.45.53.96.95,1.54,1.26s1.28.47,2.12.47c.37-.02.75-.08,1.14-.19.39-.11.72-.31.99-.59.27-.28.4-.65.4-1.12s-.14-.81-.41-1.07c-.27-.26-.63-.48-1.07-.65-.44-.17-.91-.32-1.41-.45-.53-.14-1.05-.3-1.57-.48-.51-.18-.98-.41-1.38-.69-.41-.28-.74-.63-.99-1.06-.25-.43-.37-.95-.37-1.58,0-.72.2-1.35.59-1.88.39-.53.92-.94,1.58-1.23.66-.29,1.39-.43,2.19-.43.45,0,.92.05,1.41.16.49.1.97.28,1.43.53.47.25.87.59,1.23,1.02.14.16.22.36.24.6.02.24-.09.46-.31.65-.18.13-.37.19-.59.18-.22,0-.4-.08-.54-.23-.35-.42-.78-.73-1.29-.95s-1.06-.32-1.67-.32c-.37,0-.74.06-1.11.18-.37.12-.68.31-.93.57-.25.26-.37.62-.37,1.08.02.43.16.79.43,1.06s.64.49,1.11.66c.47.17.98.33,1.54.49.51.13,1.01.28,1.48.45.47.17.9.39,1.29.66s.69.62.91,1.05c.22.43.34.96.34,1.6,0,.74-.21,1.38-.63,1.91-.42.54-.97.95-1.65,1.23-.68.28-1.42.42-2.2.42-.88,0-1.76-.16-2.62-.49-.87-.33-1.61-.9-2.24-1.72Z" style="fill: #134b24; stroke-width: 0px;"/>
    <path d="M393.8,89.03c-1.3,0-2.43-.27-3.4-.82-.96-.55-1.71-1.3-2.24-2.25-.53-.95-.79-2.06-.79-3.31,0-1.4.28-2.59.83-3.58.55-.99,1.28-1.74,2.17-2.26.89-.52,1.83-.78,2.83-.78.74,0,1.45.14,2.14.41.69.27,1.3.67,1.83,1.2.53.53.95,1.16,1.28,1.88.32.72.49,1.54.51,2.46,0,.26-.1.47-.29.64s-.42.25-.67.25h-9.51l-.43-1.66h9.25l-.39.34v-.53c-.05-.66-.26-1.22-.64-1.7s-.84-.84-1.37-1.1c-.54-.26-1.1-.39-1.7-.39-.48,0-.96.09-1.43.26-.47.18-.9.45-1.28.82-.38.37-.68.85-.91,1.44s-.35,1.31-.35,2.14c0,.93.19,1.75.57,2.46.38.71.9,1.26,1.58,1.67.67.41,1.46.61,2.36.61.56,0,1.05-.07,1.47-.22.42-.14.77-.32,1.07-.54.3-.22.55-.44.76-.66.21-.14.42-.22.63-.22.22,0,.42.08.58.24s.24.35.24.58c0,.27-.13.52-.39.75-.47.5-1.08.93-1.84,1.3-.76.37-1.58.55-2.44.55Z" style="fill: #134b24; stroke-width: 0px;"/>
    <path d="M408.3,87.81c0,.27-.1.51-.29.7-.19.19-.43.29-.7.29s-.5-.1-.69-.29c-.18-.19-.28-.43-.28-.7v-15.84c0-.27.1-.51.29-.7.19-.19.43-.29.7-.29.29,0,.52.1.7.29.18.19.27.43.27.7v15.84Z" style="fill: #134b24; stroke-width: 0px;"/>
    <path d="M418.48,87.81c0,.27-.1.51-.29.7-.19.19-.43.29-.7.29s-.5-.1-.69-.29c-.18-.19-.28-.43-.28-.7v-15.84c0-.27.1-.51.29-.7.19-.19.43-.29.7-.29.29,0,.52.1.7.29.18.19.26.43.26.7v15.84Z" style="fill: #134b24; stroke-width: 0px;"/>
    <path d="M425.83,86.82c-.13-.21-.19-.43-.18-.66,0-.23.14-.44.4-.61.18-.11.37-.16.59-.14.22.02.41.12.59.31.45.53.96.95,1.54,1.26s1.28.47,2.12.47c.37-.02.75-.08,1.14-.19.39-.11.72-.31.99-.59.27-.28.4-.65.4-1.12s-.14-.81-.41-1.07c-.27-.26-.63-.48-1.07-.65-.44-.17-.91-.32-1.41-.45-.53-.14-1.05-.3-1.57-.48-.51-.18-.98-.41-1.38-.69-.41-.28-.74-.63-.99-1.06-.25-.43-.37-.95-.37-1.58,0-.72.2-1.35.59-1.88.39-.53.92-.94,1.58-1.23.66-.29,1.39-.43,2.19-.43.45,0,.92.05,1.41.16.49.1.97.28,1.43.53.47.25.87.59,1.23,1.02.14.16.22.36.24.6.02.24-.09.46-.31.65-.18.13-.37.19-.59.18-.22,0-.4-.08-.54-.23-.35-.42-.78-.73-1.29-.95s-1.06-.32-1.67-.32c-.37,0-.74.06-1.11.18-.37.12-.68.31-.93.57-.25.26-.37.62-.37,1.08.02.43.16.79.43,1.06s.64.49,1.11.66c.47.17.98.33,1.54.49.51.13,1.01.28,1.48.45.47.17.9.39,1.29.66s.69.62.91,1.05c.22.43.34.96.34,1.6,0,.74-.21,1.38-.63,1.91-.42.54-.97.95-1.65,1.23-.68.28-1.42.42-2.2.42-.88,0-1.76-.16-2.62-.49-.87-.33-1.61-.9-2.24-1.72Z" style="fill: #134b24; stroke-width: 0px;"/>
    <path d="M447.81,76.03c.83,0,1.58.09,2.24.26.66.18,1.18.42,1.56.72.39.31.58.65.58,1.04,0,.22-.07.43-.22.63-.14.19-.35.29-.6.29-.21,0-.38-.04-.52-.13-.14-.09-.26-.19-.39-.31-.12-.12-.28-.24-.49-.35-.19-.1-.47-.18-.84-.25-.37-.07-.74-.11-1.11-.11-.88,0-1.66.21-2.32.63-.67.42-1.19.98-1.58,1.69-.39.71-.58,1.51-.58,2.41s.18,1.7.55,2.41.88,1.27,1.54,1.69c.66.42,1.42.63,2.29.63.56,0,1.01-.05,1.34-.14.33-.1.61-.21.85-.34.27-.16.49-.32.64-.48.15-.16.36-.24.64-.24s.49.09.64.26c.15.18.23.39.23.65,0,.31-.2.62-.6.94-.4.32-.95.59-1.64.81-.69.22-1.46.32-2.31.32-1.22,0-2.29-.28-3.2-.85-.91-.57-1.63-1.35-2.13-2.34-.51-.99-.76-2.09-.76-3.31s.26-2.32.78-3.3c.52-.98,1.25-1.76,2.18-2.34.93-.58,2.01-.87,3.23-.87Z" style="fill: #134b24; stroke-width: 0px;"/>
    <path d="M465.15,76.15c1.06,0,1.9.23,2.52.69.62.46,1.06,1.07,1.32,1.83.27.76.4,1.61.4,2.54v6.6c0,.27-.09.51-.28.7-.18.19-.41.29-.69.29-.29,0-.52-.1-.7-.29-.18-.19-.26-.43-.26-.7v-6.6c0-.59-.09-1.14-.26-1.64-.18-.5-.47-.89-.88-1.19-.41-.3-.97-.45-1.67-.45-.66,0-1.26.15-1.81.45-.55.3-.98.69-1.3,1.19s-.48,1.04-.48,1.64v6.6c0,.27-.09.51-.28.7-.18.19-.41.29-.69.29s-.5-.1-.69-.29c-.18-.19-.28-.43-.28-.7v-15.84c0-.27.09-.51.28-.7.18-.19.41-.29.69-.29.29,0,.52.1.7.29.18.19.26.43.26.7v7.18l-.48.53c.08-.42.26-.84.53-1.26.27-.43.62-.81,1.04-1.14.42-.34.88-.61,1.4-.81.51-.2,1.05-.3,1.61-.3Z" style="fill: #134b24; stroke-width: 0px;"/>
    <path d="M487.54,76.22c.27,0,.5.09.69.28s.28.41.28.69v10.62c0,.27-.09.51-.28.7-.18.19-.41.29-.69.29-.29,0-.53-.1-.71-.29-.18-.19-.28-.43-.28-.7v-2.29l.46-.05c0,.37-.12.76-.36,1.17-.24.41-.57.8-.99,1.16-.42.36-.91.66-1.47.89-.56.23-1.17.35-1.83.35-1.09,0-2.07-.28-2.95-.85-.88-.57-1.56-1.34-2.06-2.32-.5-.98-.75-2.1-.75-3.35s.25-2.39.76-3.36c.51-.97,1.19-1.73,2.05-2.29.86-.55,1.83-.83,2.9-.83.69,0,1.33.11,1.93.34.59.23,1.11.53,1.55.91.44.39.78.81,1.02,1.28.24.47.36.93.36,1.4l-.63-.14v-2.62c0-.27.09-.5.28-.69.18-.18.42-.28.71-.28ZM482.58,87.25c.8,0,1.51-.21,2.12-.63.61-.42,1.09-.98,1.44-1.7.35-.71.53-1.52.53-2.42s-.18-1.68-.53-2.38c-.35-.71-.83-1.27-1.44-1.69-.61-.42-1.32-.63-2.12-.63s-1.49.2-2.11.61c-.62.41-1.1.97-1.46,1.67-.35.71-.53,1.51-.53,2.41s.17,1.71.52,2.42c.35.71.83,1.28,1.44,1.7.62.42,1.33.63,2.13.63Z" style="fill: #134b24; stroke-width: 0px;"/>
    <path d="M502.27,76.54c.26,0,.47.08.65.25.18.17.26.38.26.64s-.09.47-.26.64c-.18.17-.39.25-.65.25h-6.04c-.26,0-.47-.08-.65-.25s-.26-.38-.26-.64c0-.27.09-.49.26-.65.18-.16.39-.24.65-.24h6.04ZM501.6,71.02c.27,0,.56.04.85.11.3.07.55.19.77.34.22.15.33.37.33.64,0,.26-.08.47-.24.64-.16.17-.35.25-.58.25-.14,0-.35-.04-.6-.12-.26-.08-.52-.12-.79-.12-.37,0-.67.08-.9.24-.23.16-.4.37-.51.64-.1.26-.16.56-.16.88v13.29c0,.27-.09.51-.28.7-.18.19-.41.29-.69.29-.29,0-.52-.1-.7-.29-.18-.19-.26-.43-.26-.7v-13.29c0-1.06.33-1.91,1-2.54.67-.63,1.59-.95,2.76-.95Z" style="fill: #134b24; stroke-width: 0px;"/>
    <path d="M509.55,76.42h5.66c.26,0,.47.09.64.26.17.18.25.39.25.65,0,.24-.08.45-.25.61-.17.17-.38.25-.64.25h-5.66c-.24,0-.45-.09-.64-.26-.18-.18-.28-.39-.28-.63,0-.26.09-.47.28-.64.18-.17.4-.25.64-.25ZM512.07,73.14c.27,0,.5.1.67.29s.27.43.27.7v11.61c0,.39.06.67.17.87.11.19.26.33.45.4s.36.11.54.11c.16,0,.3-.03.42-.08s.26-.08.42-.08.31.08.45.23c.14.15.2.35.2.59,0,.29-.17.53-.51.73-.34.2-.71.3-1.13.3-.23,0-.5-.02-.83-.05-.33-.03-.65-.14-.97-.31-.32-.18-.59-.47-.81-.88-.22-.41-.32-.98-.32-1.72v-11.7c0-.27.1-.51.29-.7s.43-.29.7-.29Z" style="fill: #134b24; stroke-width: 0px;"/>
    <path d="M540,76.15c1.09,0,1.98.28,2.66.83.68.55,1.14,1.34,1.36,2.35h-.36l.17-.43c.19-.45.52-.88.99-1.3.47-.42,1-.76,1.61-1.04.61-.27,1.24-.41,1.9-.41,1.06,0,1.89.23,2.5.69.61.46,1.05,1.07,1.31,1.83.26.76.4,1.62.4,2.56v6.57c0,.27-.09.51-.28.7-.19.19-.42.29-.71.29-.27,0-.5-.1-.69-.29-.18-.19-.28-.43-.28-.7v-6.52c0-.61-.09-1.17-.27-1.67s-.47-.91-.89-1.22c-.42-.3-.98-.46-1.69-.46-.64,0-1.24.15-1.78.46-.55.31-.98.71-1.3,1.22-.32.51-.48,1.06-.48,1.67v6.52c0,.27-.09.51-.27.7-.18.19-.41.29-.7.29s-.52-.1-.7-.29c-.18-.19-.26-.43-.26-.7v-6.6c0-.59-.09-1.14-.27-1.64s-.47-.89-.87-1.19c-.4-.3-.95-.45-1.64-.45-.64,0-1.23.15-1.76.45-.53.3-.95.69-1.28,1.19-.32.5-.48,1.04-.48,1.64v6.6c0,.27-.09.51-.28.7-.18.19-.41.29-.69.29s-.5-.1-.69-.29c-.18-.19-.28-.43-.28-.7v-10.47c0-.29.09-.53.28-.71.18-.18.41-.28.69-.28.29,0,.52.09.7.28.18.18.27.42.27.71v1.81l-.53.58c.06-.42.23-.83.49-1.25.26-.42.61-.8,1.02-1.16.42-.35.88-.63,1.4-.84.51-.21,1.06-.31,1.64-.31Z" style="fill: #134b24; stroke-width: 0px;"/>
    <path d="M566.59,76.03c1.09,0,2.07.28,2.94.83.87.55,1.55,1.31,2.06,2.28s.76,2.08.76,3.35-.25,2.39-.76,3.37-1.19,1.75-2.05,2.32c-.86.57-1.83.85-2.9.85-.59,0-1.15-.09-1.67-.28-.52-.18-1-.43-1.42-.75-.43-.31-.78-.65-1.07-1.02-.29-.37-.5-.75-.63-1.13l.53-.31v2.38c0,.27-.09.51-.27.7s-.41.29-.7.29c-.27,0-.5-.09-.69-.28-.18-.18-.28-.42-.28-.71v-15.96c0-.27.09-.51.28-.7.18-.19.41-.29.69-.29.29,0,.52.1.7.29.18.19.27.43.27.7v7.42l-.36-.19c.11-.4.31-.79.59-1.17.28-.38.63-.71,1.04-1.01.41-.3.87-.53,1.37-.71.51-.18,1.03-.26,1.58-.26ZM566.37,77.81c-.8,0-1.51.2-2.13.61-.62.41-1.1.96-1.44,1.66s-.52,1.5-.52,2.4.17,1.71.52,2.43.83,1.29,1.44,1.71c.62.42,1.33.63,2.13.63s1.51-.21,2.12-.63c.61-.42,1.09-.99,1.44-1.71s.53-1.53.53-2.43-.18-1.7-.53-2.4-.84-1.25-1.44-1.66c-.61-.41-1.32-.61-2.12-.61Z" style="fill: #134b24; stroke-width: 0px;"/>
    <path d="M580.91,71.94c.27,0,.51.1.7.29s.29.43.29.7v14.88c0,.27-.1.51-.3.7-.2.19-.44.29-.71.29-.31,0-.55-.1-.73-.29-.18-.19-.28-.43-.28-.7v-14.88c0-.27.1-.51.29-.7s.44-.29.75-.29ZM580.82,79.28h11.2l-.02,1.88h-11.24l.07-1.88ZM591.99,71.94c.3,0,.55.1.73.29.18.19.28.43.28.7v14.88c0,.27-.1.51-.29.7-.19.19-.44.29-.75.29-.27,0-.51-.1-.7-.29-.19-.19-.29-.43-.29-.7v-14.88c0-.27.1-.51.3-.7.2-.19.44-.29.71-.29Z" style="fill: #134b24; stroke-width: 0px;"/>
  </g>
  <g>
    <g>
      <path d="M203.37,24.36c1.02,0,1.84.34,2.47,1.03.63.69.94,1.54.94,2.56v21.27c0,3.25-.7,6.13-2.09,8.64-1.39,2.51-3.3,4.46-5.73,5.87-2.43,1.41-5.25,2.11-8.46,2.11s-6.04-.7-8.49-2.11c-2.45-1.41-4.37-3.37-5.76-5.87-1.39-2.51-2.09-5.38-2.09-8.64v-21.27c0-1.02.35-1.87,1.06-2.56.7-.68,1.61-1.03,2.7-1.03.9,0,1.71.34,2.44,1.03.72.69,1.09,1.54,1.09,2.56v21.27c0,1.96.42,3.65,1.26,5.08.84,1.43,1.96,2.54,3.35,3.32,1.39.78,2.87,1.18,4.44,1.18,1.68,0,3.25-.39,4.7-1.18,1.45-.78,2.62-1.89,3.52-3.32.9-1.43,1.35-3.12,1.35-5.08v-21.27c0-1.02.29-1.87.88-2.56.59-.68,1.39-1.03,2.41-1.03Z" style="fill: #134b24; stroke-width: 0px;"/>
      <path d="M190.51,66.41c-3.3,0-6.25-.74-8.78-2.19-2.53-1.46-4.54-3.51-5.97-6.09-1.43-2.58-2.16-5.58-2.16-8.91v-21.27c0-1.17.41-2.17,1.23-2.97.81-.79,1.86-1.19,3.1-1.19,1.05,0,2,.4,2.83,1.19.84.8,1.27,1.8,1.27,2.97v21.27c0,1.85.4,3.46,1.18,4.79.79,1.33,1.84,2.38,3.13,3.11,2.7,1.52,5.97,1.41,8.58,0,1.35-.73,2.47-1.78,3.31-3.12.84-1.33,1.26-2.94,1.26-4.77v-21.27c0-1.16.34-2.14,1.02-2.93.7-.82,1.66-1.23,2.85-1.23s2.15.41,2.89,1.21c.72.79,1.09,1.78,1.09,2.94v21.27c0,3.33-.73,6.33-2.16,8.91-1.44,2.59-3.43,4.64-5.94,6.09-2.51,1.46-5.45,2.19-8.75,2.19ZM177.94,24.94c-.95,0-1.7.28-2.3.86-.59.58-.88,1.28-.88,2.14v21.27c0,3.14.68,5.95,2.01,8.36,1.33,2.4,3.2,4.3,5.54,5.65,2.35,1.35,5.11,2.04,8.2,2.04s5.84-.69,8.17-2.04c2.33-1.35,4.18-3.25,5.51-5.65,1.34-2.41,2.01-5.22,2.01-8.36v-21.27c0-.88-.26-1.58-.79-2.17-.52-.56-1.19-.84-2.04-.84s-1.49.27-1.97.83c-.5.58-.74,1.3-.74,2.18v21.27c0,2.06-.48,3.87-1.44,5.39-.95,1.51-2.21,2.69-3.74,3.52-1.53.83-3.2,1.24-4.97,1.24-1.66,0-3.25-.42-4.72-1.25-1.47-.83-2.67-2.02-3.56-3.53-.89-1.51-1.34-3.32-1.34-5.37v-21.27c0-.86-.3-1.56-.91-2.14-.62-.59-1.29-.87-2.04-.87Z" style="fill: #134b24; stroke-width: 0px;"/>
    </g>
    <g>
      <path d="M240.73,22.07c1.02,0,1.86.33,2.53,1,.67.67,1,1.53,1,2.58v36.3c0,1.02-.33,1.87-1,2.56-.67.69-1.51,1.03-2.53,1.03s-1.86-.34-2.53-1.03c-.67-.69-1-1.54-1-2.56v-2.88l1.29.53c0,.51-.27,1.13-.82,1.85-.55.73-1.29,1.44-2.23,2.14-.94.7-2.05,1.3-3.32,1.79-1.27.49-2.65.73-4.14.73-2.7,0-5.15-.69-7.34-2.09-2.19-1.39-3.93-3.31-5.2-5.76-1.27-2.45-1.91-5.26-1.91-8.43s.64-6.04,1.91-8.49c1.27-2.45,2.99-4.37,5.14-5.76,2.15-1.39,4.54-2.09,7.17-2.09,1.68,0,3.23.26,4.64.76,1.41.51,2.63,1.16,3.67,1.94,1.04.78,1.84,1.58,2.41,2.38.57.8.85,1.48.85,2.03l-2.11.76v-15.74c0-1.02.33-1.87,1-2.56.67-.68,1.51-1.03,2.53-1.03ZM228.87,59.67c1.72,0,3.23-.43,4.52-1.29,1.29-.86,2.3-2.04,3.03-3.52.72-1.49,1.09-3.15,1.09-4.99s-.36-3.56-1.09-5.05c-.73-1.49-1.73-2.66-3.03-3.52-1.29-.86-2.8-1.29-4.52-1.29s-3.17.43-4.46,1.29c-1.29.86-2.3,2.04-3.03,3.52-.73,1.49-1.09,3.17-1.09,5.05s.36,3.51,1.09,4.99c.72,1.49,1.73,2.66,3.03,3.52,1.29.86,2.78,1.29,4.46,1.29Z" style="fill: #134b24; stroke-width: 0px;"/>
      <path d="M227.99,66.71c-2.8,0-5.38-.73-7.65-2.17-2.27-1.44-4.09-3.45-5.4-5.98-1.31-2.52-1.97-5.44-1.97-8.69s.66-6.23,1.97-8.75c1.31-2.53,3.11-4.54,5.34-5.98,2.24-1.45,4.76-2.18,7.48-2.18,1.74,0,3.37.27,4.84.8,1.46.53,2.74,1.21,3.82,2.02.07.06.15.11.22.17v-10.28c0-1.17.39-2.16,1.16-2.96.78-.8,1.77-1.2,2.94-1.2s2.16.39,2.93,1.17c.77.78,1.17,1.78,1.17,2.99v36.3c0,1.17-.39,2.16-1.16,2.96-.77.8-1.76,1.2-2.94,1.2s-2.17-.4-2.94-1.2c-.47-.49-.8-1.05-.99-1.68-.31.28-.65.56-1.01.83-.98.73-2.14,1.36-3.46,1.87-1.33.51-2.8.77-4.35.77ZM227.75,34.1c-2.5,0-4.8.67-6.85,1.99-2.06,1.33-3.72,3.19-4.94,5.54-1.22,2.35-1.84,5.12-1.84,8.22s.62,5.81,1.84,8.16c1.22,2.35,2.9,4.21,5,5.54,2.09,1.33,4.46,2,7.03,2,1.41,0,2.73-.23,3.93-.7,1.22-.47,2.29-1.04,3.18-1.71.59-.44,1.1-.89,1.53-1.34v-3.58l2.45,1v.39c0,.64-.31,1.36-.94,2.2-.11.14-.22.28-.34.43.05.75.32,1.36.83,1.88.56.57,1.25.85,2.11.85s1.56-.28,2.11-.85c.56-.58.84-1.28.84-2.15V25.66c0-.91-.27-1.62-.83-2.18-.56-.56-1.25-.83-2.12-.83s-1.55.28-2.11.85c-.56.58-.84,1.28-.84,2.15v11.29c.45.44.84.89,1.16,1.33.64.91.96,1.68.96,2.36v.4l-3.27,1.18v-4.78c-.28-.25-.59-.5-.92-.75-.99-.74-2.17-1.37-3.52-1.86-1.34-.48-2.84-.73-4.45-.73ZM237.78,59.94v.24c.03-.08.06-.15.08-.21l-.08-.03ZM237.78,38.65v1.92l.9-.33c-.08-.31-.28-.73-.69-1.31-.07-.1-.14-.19-.22-.29ZM228.87,60.25c-1.79,0-3.4-.47-4.78-1.39-1.37-.91-2.46-2.17-3.22-3.75-.76-1.56-1.15-3.32-1.15-5.25s.39-3.75,1.15-5.31c.77-1.57,1.85-2.84,3.22-3.75,1.38-.92,2.99-1.39,4.78-1.39s3.46.47,4.84,1.39c1.37.91,2.46,2.18,3.22,3.75.76,1.56,1.15,3.35,1.15,5.31s-.39,3.69-1.14,5.25c-.77,1.58-1.85,2.84-3.22,3.75-1.38.92-3.01,1.39-4.84,1.39ZM228.87,40.57c-1.56,0-2.95.4-4.14,1.2-1.2.8-2.15,1.91-2.83,3.3-.68,1.4-1.03,3.02-1.03,4.8s.35,3.34,1.03,4.74c.68,1.39,1.63,2.5,2.83,3.3,1.19.79,2.58,1.2,4.15,1.2s3.01-.4,4.2-1.2c1.2-.8,2.15-1.91,2.83-3.3.68-1.4,1.03-3,1.03-4.74s-.35-3.4-1.03-4.8c-.68-1.39-1.63-2.5-2.83-3.3-1.19-.79-2.61-1.2-4.2-1.2Z" style="fill: #134b24; stroke-width: 0px;"/>
    </g>
    <g>
      <path d="M282.38,49.86c0,3.21-.72,6.04-2.14,8.49-1.43,2.45-3.35,4.36-5.76,5.73-2.41,1.37-5.1,2.06-8.08,2.06s-5.67-.68-8.08-2.06c-2.41-1.37-4.33-3.28-5.76-5.73-1.43-2.45-2.14-5.28-2.14-8.49s.71-6.04,2.14-8.49c1.43-2.45,3.35-4.37,5.76-5.76,2.41-1.39,5.1-2.09,8.08-2.09s5.67.7,8.08,2.09c2.41,1.39,4.33,3.31,5.76,5.76,1.43,2.45,2.14,5.28,2.14,8.49ZM275.33,49.86c0-2-.4-3.73-1.2-5.2-.8-1.47-1.88-2.61-3.23-3.44-1.35-.82-2.85-1.23-4.49-1.23s-3.14.41-4.49,1.23c-1.35.82-2.43,1.97-3.23,3.44-.8,1.47-1.2,3.2-1.2,5.2s.4,3.67,1.2,5.14c.8,1.47,1.88,2.61,3.23,3.44,1.35.82,2.85,1.23,4.49,1.23s3.14-.41,4.49-1.23c1.35-.82,2.43-1.97,3.23-3.44.8-1.47,1.2-3.18,1.2-5.14Z" style="fill: #134b24; stroke-width: 0px;"/>
      <path d="M266.4,66.71c-3.06,0-5.88-.72-8.36-2.13-2.49-1.42-4.5-3.41-5.97-5.94-1.48-2.52-2.22-5.48-2.22-8.78s.75-6.25,2.22-8.78c1.47-2.52,3.48-4.53,5.97-5.97,2.49-1.44,5.3-2.16,8.37-2.16s5.88.73,8.37,2.16c2.48,1.43,4.49,3.44,5.97,5.97,1.47,2.53,2.22,5.48,2.22,8.78s-.75,6.25-2.22,8.78c-1.48,2.53-3.48,4.52-5.97,5.94-2.49,1.42-5.3,2.13-8.36,2.13ZM266.4,34.1c-2.86,0-5.48.68-7.79,2.01-2.31,1.33-4.18,3.2-5.55,5.55-1.37,2.35-2.07,5.11-2.07,8.2s.69,5.85,2.07,8.2c1.37,2.35,3.24,4.2,5.54,5.52,2.31,1.31,4.93,1.98,7.79,1.98s5.48-.67,7.79-1.98c2.31-1.31,4.17-3.17,5.54-5.52,1.37-2.35,2.07-5.1,2.07-8.2s-.69-5.85-2.07-8.2c-1.37-2.35-3.24-4.21-5.55-5.55-2.31-1.33-4.93-2.01-7.79-2.01ZM266.4,60.25c-1.74,0-3.36-.44-4.79-1.32-1.43-.87-2.59-2.1-3.44-3.65-.85-1.54-1.28-3.37-1.28-5.42s.43-3.93,1.28-5.48c.85-1.55,2-2.78,3.44-3.65,1.44-.87,3.05-1.32,4.79-1.32s3.36.44,4.79,1.32c1.43.87,2.59,2.1,3.44,3.65.85,1.55,1.28,3.39,1.28,5.48s-.43,3.87-1.28,5.42c-.85,1.55-2,2.78-3.44,3.65-1.44.88-3.05,1.32-4.79,1.32ZM266.4,40.57c-1.53,0-2.94.39-4.19,1.15-1.26.77-2.28,1.85-3.02,3.22-.75,1.38-1.13,3.03-1.13,4.92s.38,3.49,1.13,4.86c.75,1.37,1.77,2.46,3.02,3.22,1.25.76,2.66,1.15,4.19,1.15s2.94-.39,4.19-1.15c1.26-.77,2.27-1.85,3.02-3.22.75-1.38,1.13-3.01,1.13-4.86s-.38-3.55-1.13-4.92c-.75-1.37-1.77-2.45-3.02-3.22-1.25-.76-2.66-1.15-4.19-1.15Z" style="fill: #134b24; stroke-width: 0px;"/>
    </g>
    <g>
      <path d="M351.82,24.25c.9,0,1.76.34,2.59,1.03.82.69,1.23,1.62,1.23,2.79,0,.35-.06.74-.18,1.17l-11.57,34.07c-.23.7-.66,1.24-1.26,1.62-.61.37-1.24.58-1.91.62-.67,0-1.32-.2-1.97-.59-.65-.39-1.15-.96-1.5-1.7l-8.69-19.74.53.35-8.58,19.39c-.35.74-.85,1.31-1.5,1.7-.65.39-1.3.59-1.97.59-.63-.04-1.25-.24-1.88-.62-.63-.37-1.06-.91-1.29-1.62l-11.57-34.07c-.12-.43-.18-.82-.18-1.17,0-1.18.42-2.1,1.26-2.79.84-.68,1.71-1.03,2.61-1.03.74,0,1.44.2,2.09.59.65.39,1.09.96,1.32,1.7l9.34,28.32-1.29-.06,8.34-20.03c.31-.7.76-1.26,1.35-1.67.59-.41,1.25-.6,2-.56.74-.04,1.41.15,2,.56.59.41,1.02.97,1.29,1.67l7.64,19.15-.94.59,9.22-27.96c.23-.74.68-1.31,1.35-1.7.67-.39,1.37-.59,2.11-.59Z" style="fill: #134b24; stroke-width: 0px;"/>
      <path d="M317.04,66.12c-.75-.04-1.47-.28-2.17-.7-.75-.44-1.27-1.09-1.54-1.93l-11.57-34.07c-.14-.51-.21-.96-.21-1.36,0-1.35.5-2.44,1.47-3.24,1.72-1.4,3.73-1.47,5.36-.49.77.46,1.3,1.15,1.57,2.02l8.27,25.07,7.04-16.9c.36-.81.88-1.45,1.55-1.92.69-.48,1.48-.71,2.36-.66.81-.04,1.61.18,2.3.66.68.48,1.18,1.13,1.5,1.94l6.64,16.65,8.2-24.85c.28-.87.82-1.56,1.61-2.02,1.67-.98,3.68-.91,5.36.49.96.8,1.44,1.89,1.44,3.23,0,.4-.07.84-.2,1.33l-11.58,34.11c-.28.83-.78,1.48-1.51,1.92-.69.42-1.42.66-2.18.7h0c-.8,0-1.56-.22-2.3-.67-.74-.45-1.32-1.1-1.72-1.95l-7.83-17.78-7.86,17.77c-.41.86-.99,1.52-1.73,1.96-.73.44-1.5.67-2.27.67ZM306,24.82c-.77,0-1.51.29-2.25.9-.71.58-1.05,1.34-1.05,2.34,0,.3.05.64.16,1.02l11.56,34.04c.19.58.53,1,1.04,1.3.54.32,1.09.5,1.62.54.52,0,1.08-.17,1.63-.5.55-.33.97-.81,1.28-1.46l8.28-18.72-1.04-2.35,2.58,1.72-.28.63,8.25,18.73c.3.63.72,1.11,1.27,1.44.56.34,1.11.5,1.67.5.53-.03,1.08-.21,1.61-.53.49-.3.82-.73,1.02-1.31l11.57-34.08c.09-.35.15-.69.15-.99,0-1-.34-1.77-1.03-2.35-1.33-1.11-2.77-1.14-4.04-.39-.54.32-.9.77-1.09,1.38l-8.63,26.16.51,1.28-2.7,1.69.97-2.93-7.15-17.93c-.24-.61-.59-1.07-1.09-1.41-.48-.34-1.02-.49-1.64-.46-.68-.03-1.21.12-1.7.45-.5.35-.89.83-1.15,1.44l-7.54,18.12.78,2.36-2.95-.14.94-2.27-8.69-26.35c-.2-.62-.54-1.07-1.07-1.39-.56-.34-1.14-.5-1.79-.5Z" style="fill: #134b24; stroke-width: 0px;"/>
    </g>
    <g>
      <path d="M363.45,30.3c-1.33,0-2.27-.21-2.82-.65-.55-.43-.82-1.19-.82-2.29v-1.12c0-1.14.3-1.91.91-2.32.61-.41,1.54-.62,2.79-.62,1.37,0,2.33.22,2.88.65.55.43.82,1.19.82,2.29v1.12c0,1.14-.29,1.91-.88,2.32-.59.41-1.55.62-2.88.62ZM367.03,61.96c0,1.02-.33,1.87-1,2.56-.67.69-1.51,1.03-2.53,1.03s-1.86-.34-2.53-1.03c-.67-.69-1-1.54-1-2.56v-24.26c0-1.02.33-1.87,1-2.56.67-.68,1.51-1.03,2.53-1.03s1.86.34,2.53,1.03c.66.69,1,1.54,1,2.56v24.26Z" style="fill: #134b24; stroke-width: 0px;"/>
      <path d="M363.51,66.12c-1.18,0-2.17-.4-2.94-1.2-.77-.79-1.16-1.79-1.16-2.96v-24.26c0-1.17.39-2.16,1.16-2.96.77-.8,1.76-1.2,2.94-1.2s2.16.4,2.94,1.2c.77.79,1.16,1.79,1.16,2.96v24.26c0,1.17-.39,2.16-1.16,2.96-.78.8-1.77,1.2-2.94,1.2ZM363.51,34.69c-.86,0-1.55.28-2.11.85-.56.58-.83,1.28-.83,2.15v24.26c0,.87.27,1.58.83,2.15.56.57,1.25.85,2.11.85s1.56-.28,2.11-.85c.56-.58.83-1.28.83-2.15v-24.26c0-.87-.27-1.57-.84-2.15-.56-.57-1.25-.85-2.11-.85ZM363.45,30.87c-1.48,0-2.52-.25-3.18-.77-.69-.54-1.04-1.47-1.04-2.74v-1.12c0-1.33.39-2.27,1.16-2.8.71-.48,1.73-.72,3.11-.72,1.52,0,2.57.25,3.24.77.69.54,1.04,1.47,1.04,2.74v1.12c0,1.33-.38,2.27-1.13,2.79-.69.49-1.74.72-3.21.72ZM363.51,23.88c-1.13,0-1.96.17-2.46.52-.44.3-.66.92-.66,1.84v1.12c0,.91.2,1.52.6,1.84.3.24.98.52,2.46.52s2.21-.28,2.55-.51c.42-.29.64-.92.64-1.85v-1.12c0-.91-.2-1.52-.6-1.84-.3-.24-.99-.52-2.52-.52Z" style="fill: #134b24; stroke-width: 0px;"/>
    </g>
    <g>
      <path d="M388.24,33.53c2.23,0,4.18.24,5.85.7,1.66.47,2.96,1.13,3.88,1.97.92.84,1.38,1.85,1.38,3.03,0,.78-.23,1.52-.7,2.2-.47.69-1.16,1.03-2.06,1.03-.63,0-1.15-.09-1.56-.26s-.77-.4-1.09-.68c-.31-.27-.69-.53-1.12-.76-.39-.24-.99-.42-1.79-.56-.8-.14-1.4-.21-1.79-.21-2,0-3.69.43-5.08,1.29-1.39.86-2.46,2.03-3.2,3.49-.74,1.47-1.12,3.16-1.12,5.08s.38,3.55,1.15,5.02c.76,1.47,1.82,2.63,3.17,3.49,1.35.86,2.91,1.29,4.67,1.29.98,0,1.82-.06,2.53-.18.7-.12,1.29-.29,1.76-.53.55-.31,1.04-.65,1.47-1,.43-.35,1.08-.53,1.94-.53,1.02,0,1.8.32,2.35.97.55.65.82,1.44.82,2.38s-.55,1.87-1.64,2.67c-1.1.8-2.54,1.45-4.32,1.94-1.78.49-3.71.73-5.79.73-3.09,0-5.78-.71-8.05-2.14-2.27-1.43-4.02-3.38-5.26-5.84s-1.85-5.23-1.85-8.28c0-3.21.66-6.04,1.97-8.49,1.31-2.45,3.13-4.37,5.46-5.76,2.33-1.39,5-2.09,8.02-2.09Z" style="fill: #134b24; stroke-width: 0px;"/>
      <path d="M387.94,66.71c-3.19,0-6-.75-8.36-2.23-2.35-1.48-4.19-3.52-5.47-6.08-1.27-2.54-1.91-5.41-1.91-8.54,0-3.29.68-6.24,2.04-8.76,1.35-2.53,3.26-4.54,5.67-5.98,2.41-1.44,5.21-2.17,8.31-2.17,2.27,0,4.29.24,6,.73,1.74.49,3.13,1.2,4.11,2.1,1.04.95,1.57,2.11,1.57,3.45,0,.9-.27,1.75-.81,2.53-.58.85-1.43,1.28-2.53,1.28-.7,0-1.3-.1-1.78-.31-.46-.2-.88-.46-1.24-.77-.28-.25-.62-.48-1.01-.69-.35-.21-.88-.37-1.61-.5-.77-.13-1.34-.2-1.69-.2-1.88,0-3.49.41-4.78,1.21s-2.3,1.9-2.99,3.27c-.7,1.38-1.05,3-1.05,4.82s.36,3.38,1.08,4.76c.71,1.37,1.71,2.47,2.97,3.27,1.25.8,2.72,1.2,4.36,1.2.94,0,1.76-.06,2.43-.17.65-.11,1.18-.27,1.6-.48.48-.28.95-.6,1.36-.93.54-.44,1.31-.66,2.3-.66,1.19,0,2.13.39,2.79,1.17.64.75.96,1.68.96,2.75,0,1.17-.63,2.22-1.88,3.14-1.15.84-2.67,1.52-4.51,2.03-1.83.5-3.82.75-5.94.75ZM388.24,34.1c-2.89,0-5.49.67-7.72,2-2.23,1.33-3.99,3.19-5.25,5.53-1.26,2.35-1.9,5.12-1.9,8.22s.6,5.65,1.79,8.02c1.18,2.36,2.88,4.25,5.05,5.61,2.17,1.36,4.77,2.06,7.74,2.06,2.01,0,3.91-.24,5.63-.71,1.7-.47,3.09-1.09,4.13-1.85.95-.69,1.41-1.42,1.41-2.21s-.22-1.46-.69-2.01c-.44-.51-1.06-.77-1.91-.77-.72,0-1.25.13-1.57.4-.46.38-.98.73-1.55,1.05-.55.27-1.19.47-1.95.6-.73.12-1.61.18-2.62.18-1.87,0-3.54-.46-4.98-1.38-1.43-.91-2.56-2.16-3.37-3.71-.8-1.55-1.21-3.33-1.21-5.29s.4-3.8,1.18-5.34c.79-1.56,1.94-2.81,3.41-3.72,1.48-.92,3.29-1.38,5.39-1.38.42,0,1.04.07,1.89.21.88.15,1.54.36,1.99.63.44.24.85.52,1.2.82.27.23.58.43.93.58.34.14.78.22,1.33.22.71,0,1.22-.25,1.58-.78.41-.59.6-1.21.6-1.88,0-1.01-.39-1.86-1.19-2.6-.85-.78-2.08-1.39-3.64-1.84-1.61-.45-3.52-.68-5.69-.68Z" style="fill: #134b24; stroke-width: 0px;"/>
    </g>
    <g>
      <path d="M421.31,33.53c2.82,0,4.96.61,6.43,1.82,1.47,1.21,2.48,2.83,3.03,4.85.55,2.02.82,4.26.82,6.73v15.04c0,1.02-.33,1.87-1,2.56-.67.69-1.51,1.03-2.53,1.03s-1.86-.34-2.53-1.03c-.67-.69-1-1.54-1-2.56v-15.04c0-1.29-.16-2.46-.47-3.49-.31-1.04-.88-1.87-1.7-2.5-.82-.63-2-.94-3.52-.94s-2.76.31-3.82.94c-1.06.63-1.85,1.46-2.38,2.5-.53,1.04-.79,2.2-.79,3.49v15.04c0,1.02-.33,1.87-1,2.56-.67.69-1.51,1.03-2.53,1.03s-1.86-.34-2.53-1.03c-.67-.69-1-1.54-1-2.56V25.66c0-1.02.33-1.87,1-2.56.67-.68,1.51-1.03,2.53-1.03s1.86.34,2.53,1.03c.67.69,1,1.54,1,2.56v14.57l-.88-.18c.35-.67.84-1.38,1.47-2.14.63-.76,1.39-1.48,2.29-2.14.9-.67,1.9-1.2,3-1.62,1.1-.41,2.29-.62,3.58-.62Z" style="fill: #134b24; stroke-width: 0px;"/>
      <path d="M428.07,66.12c-1.18,0-2.17-.4-2.94-1.2-.77-.79-1.16-1.79-1.16-2.96v-15.04c0-1.23-.15-2.35-.45-3.33-.28-.93-.77-1.65-1.5-2.2-.72-.55-1.79-.82-3.17-.82s-2.56.29-3.52.86c-.96.57-1.68,1.33-2.16,2.26-.48.95-.73,2.04-.73,3.23v15.04c0,1.17-.39,2.16-1.16,2.96-.78.8-1.76,1.2-2.94,1.2s-2.17-.4-2.94-1.2c-.77-.79-1.16-1.79-1.16-2.96V25.66c0-1.17.39-2.16,1.16-2.96.78-.8,1.76-1.2,2.94-1.2s2.16.4,2.94,1.2c.77.79,1.16,1.79,1.16,2.96v11.38c.56-.61,1.22-1.2,1.96-1.74.94-.69,2-1.26,3.14-1.69,1.16-.43,2.43-.65,3.79-.65,2.94,0,5.23.66,6.8,1.95,1.55,1.29,2.64,3.01,3.21,5.14.56,2.06.84,4.37.84,6.88v15.04c0,1.17-.39,2.16-1.16,2.96-.78.8-1.77,1.2-2.94,1.2ZM418.84,39.41c1.65,0,2.95.36,3.87,1.06.92.7,1.56,1.64,1.91,2.79.33,1.09.5,2.32.5,3.66v15.04c0,.87.27,1.58.84,2.15.56.57,1.25.85,2.11.85s1.55-.28,2.11-.85c.56-.58.83-1.28.83-2.15v-15.04c0-2.4-.27-4.61-.8-6.58-.51-1.89-1.47-3.42-2.84-4.55-1.36-1.12-3.4-1.69-6.07-1.69-1.22,0-2.35.2-3.38.58-1.04.39-2,.91-2.86,1.54-.86.64-1.6,1.32-2.19,2.05-.16.2-.31.39-.46.58v2.08l-2.33-.47.36-.68c.22-.42.49-.85.81-1.3v-12.82c0-.87-.27-1.57-.84-2.15-.56-.57-1.25-.85-2.11-.85s-1.55.28-2.11.85c-.56.58-.84,1.28-.84,2.15v36.3c0,.87.27,1.58.84,2.15.56.57,1.25.85,2.11.85s1.56-.28,2.11-.85c.56-.58.83-1.28.83-2.15v-15.04c0-1.38.29-2.64.86-3.76.58-1.13,1.45-2.05,2.6-2.73,1.14-.68,2.53-1.02,4.11-1.02Z" style="fill: #134b24; stroke-width: 0px;"/>
    </g>
    <g>
      <path d="M455.73,33.53c3.13,0,5.44.75,6.93,2.26,1.49,1.51,2.47,3.46,2.94,5.85l-1-.53.47-.94c.47-.9,1.19-1.87,2.17-2.91.98-1.04,2.16-1.92,3.55-2.64,1.39-.72,2.95-1.09,4.67-1.09,2.82,0,4.96.61,6.43,1.82,1.47,1.21,2.48,2.83,3.03,4.85.55,2.02.82,4.26.82,6.73v15.04c0,1.02-.33,1.87-1,2.56-.67.69-1.51,1.03-2.53,1.03s-1.86-.34-2.53-1.03c-.67-.69-1-1.54-1-2.56v-15.04c0-1.29-.16-2.46-.47-3.49-.31-1.04-.88-1.87-1.7-2.5-.82-.63-2-.94-3.52-.94s-2.76.31-3.82.94c-1.06.63-1.85,1.46-2.38,2.5-.53,1.04-.79,2.2-.79,3.49v15.04c0,1.02-.33,1.87-1,2.56-.67.69-1.51,1.03-2.53,1.03s-1.86-.34-2.53-1.03c-.67-.69-1-1.54-1-2.56v-15.04c0-1.29-.16-2.46-.47-3.49-.31-1.04-.88-1.87-1.7-2.5-.82-.63-2-.94-3.52-.94s-2.76.31-3.82.94c-1.06.63-1.85,1.46-2.38,2.5-.53,1.04-.79,2.2-.79,3.49v15.04c0,1.02-.33,1.87-1,2.56-.67.69-1.51,1.03-2.53,1.03s-1.86-.34-2.53-1.03c-.67-.69-1-1.54-1-2.56v-24.26c0-1.02.33-1.87,1-2.56.67-.68,1.51-1.03,2.53-1.03s1.86.34,2.53,1.03c.67.69,1,1.54,1,2.56v2.53l-.88-.18c.35-.67.84-1.38,1.47-2.14.63-.76,1.39-1.48,2.29-2.14.9-.67,1.9-1.2,3-1.62,1.1-.41,2.29-.62,3.58-.62Z" style="fill: #134b24; stroke-width: 0px;"/>
      <path d="M482.23,66.12c-1.18,0-2.17-.4-2.94-1.2-.77-.79-1.16-1.79-1.16-2.96v-15.04c0-1.23-.15-2.35-.45-3.33-.28-.93-.77-1.65-1.5-2.21-.72-.55-1.79-.82-3.17-.82s-2.56.29-3.52.86c-.96.57-1.68,1.33-2.16,2.26-.48.95-.73,2.04-.73,3.23v15.04c0,1.17-.39,2.16-1.16,2.96-.78.8-1.76,1.2-2.94,1.2s-2.17-.4-2.94-1.2c-.77-.79-1.16-1.79-1.16-2.96v-15.04c0-1.23-.15-2.35-.45-3.33-.28-.93-.77-1.65-1.5-2.2-.72-.55-1.79-.82-3.17-.82s-2.56.29-3.52.86c-.96.57-1.68,1.33-2.16,2.26-.49.95-.73,2.04-.73,3.23v15.04c0,1.17-.39,2.16-1.16,2.96-.77.8-1.76,1.2-2.94,1.2s-2.17-.4-2.94-1.2c-.77-.79-1.16-1.79-1.16-2.96v-24.26c0-1.17.39-2.17,1.16-2.96.78-.8,1.76-1.2,2.94-1.2s2.16.4,2.94,1.2c.63.65,1.01,1.43,1.12,2.34.58-.63,1.25-1.23,2-1.78.94-.7,2-1.26,3.14-1.69,1.16-.43,2.43-.65,3.79-.65,3.28,0,5.75.82,7.34,2.43.93.94,1.67,2.05,2.23,3.32.42-.59.93-1.21,1.53-1.84,1.02-1.08,2.26-2.01,3.71-2.76,1.47-.77,3.13-1.15,4.94-1.15,2.94,0,5.23.66,6.8,1.95,1.55,1.29,2.64,3.01,3.21,5.14.56,2.06.84,4.37.84,6.88v15.04c0,1.17-.39,2.16-1.16,2.96-.78.8-1.77,1.2-2.94,1.2ZM473,39.41c1.65,0,2.95.36,3.87,1.06.92.7,1.56,1.64,1.91,2.79.33,1.09.5,2.32.5,3.66v15.04c0,.87.27,1.58.83,2.15.56.57,1.25.85,2.11.85s1.55-.28,2.11-.85c.56-.58.83-1.28.83-2.15v-15.04c0-2.4-.27-4.61-.8-6.58-.51-1.89-1.47-3.42-2.84-4.55-1.36-1.12-3.4-1.69-6.07-1.69-1.62,0-3.1.34-4.4,1.02-1.33.69-2.47,1.54-3.4,2.53-.8.85-1.43,1.65-1.87,2.4.15.47.27.96.37,1.47l.23,1.19-2.57-1.36.71-1.42c-.52-1.47-1.28-2.72-2.29-3.74-1.37-1.39-3.57-2.09-6.52-2.09-1.22,0-2.35.2-3.38.58s-2,.91-2.85,1.54c-.86.63-1.59,1.32-2.19,2.05-.16.2-.31.39-.46.58v2.08l-2.33-.47.36-.68c.22-.42.49-.85.81-1.3v-.78c0-.87-.27-1.58-.83-2.15-.56-.57-1.25-.85-2.11-.85s-1.55.28-2.11.85c-.56.58-.84,1.28-.84,2.15v24.26c0,.87.27,1.58.84,2.15.56.57,1.25.85,2.11.85s1.55-.28,2.11-.85c.56-.58.83-1.28.83-2.15v-15.04c0-1.38.29-2.64.86-3.76.58-1.13,1.45-2.05,2.6-2.73,1.14-.68,2.53-1.02,4.11-1.02s2.95.36,3.87,1.06c.92.7,1.56,1.63,1.91,2.79.33,1.09.49,2.32.49,3.66v15.04c0,.87.27,1.58.84,2.15.56.57,1.25.85,2.11.85s1.56-.28,2.11-.85c.56-.58.84-1.29.84-2.15v-15.04c0-1.38.29-2.64.85-3.76.58-1.13,1.45-2.05,2.6-2.73,1.14-.68,2.53-1.02,4.11-1.02Z" style="fill: #134b24; stroke-width: 0px;"/>
    </g>
    <g>
      <path d="M519.12,33.53c1.02,0,1.86.33,2.53,1,.66.67,1,1.53,1,2.58v24.85c0,1.02-.33,1.87-1,2.56-.67.69-1.51,1.03-2.53,1.03s-1.86-.34-2.53-1.03c-.67-.69-1-1.54-1-2.56v-2.88l1.29.53c0,.51-.27,1.13-.82,1.85-.55.73-1.29,1.44-2.23,2.14s-2.05,1.3-3.32,1.79c-1.27.49-2.65.73-4.14.73-2.7,0-5.15-.69-7.34-2.09-2.19-1.39-3.93-3.31-5.2-5.76-1.27-2.45-1.91-5.26-1.91-8.43s.64-6.04,1.91-8.49c1.27-2.45,2.99-4.37,5.14-5.76,2.15-1.39,4.54-2.09,7.17-2.09,1.68,0,3.23.26,4.64.76,1.41.51,2.63,1.16,3.67,1.94,1.04.78,1.84,1.58,2.41,2.38.57.8.85,1.48.85,2.03l-2.11.76v-4.29c0-1.02.33-1.87,1-2.56.67-.68,1.51-1.03,2.53-1.03ZM507.25,59.67c1.72,0,3.23-.43,4.52-1.29,1.29-.86,2.3-2.04,3.03-3.52.72-1.49,1.09-3.15,1.09-4.99s-.36-3.56-1.09-5.05c-.73-1.49-1.73-2.66-3.03-3.52-1.29-.86-2.8-1.29-4.52-1.29s-3.17.43-4.46,1.29c-1.29.86-2.3,2.04-3.03,3.52-.73,1.49-1.09,3.17-1.09,5.05s.36,3.51,1.09,4.99c.72,1.49,1.73,2.66,3.03,3.52,1.29.86,2.78,1.29,4.46,1.29Z" style="fill: #134b24; stroke-width: 0px;"/>
      <path d="M506.37,66.71c-2.8,0-5.38-.73-7.65-2.17-2.27-1.44-4.09-3.45-5.4-5.98-1.31-2.52-1.97-5.44-1.97-8.69s.66-6.23,1.97-8.75c1.31-2.53,3.11-4.54,5.34-5.98,2.24-1.45,4.76-2.18,7.48-2.18,1.74,0,3.37.27,4.84.8,1.46.53,2.74,1.21,3.82,2.02.12.09.23.18.34.27.17-.71.52-1.34,1.04-1.88.78-.8,1.76-1.2,2.94-1.2s2.16.39,2.93,1.17c.78.78,1.17,1.78,1.17,2.99v24.85c0,1.17-.39,2.16-1.16,2.96-.78.8-1.76,1.2-2.94,1.2s-2.17-.4-2.94-1.2c-.47-.49-.8-1.05-.99-1.68-.31.28-.65.56-1.01.83-.98.73-2.14,1.36-3.46,1.87-1.33.51-2.8.77-4.35.77ZM506.14,34.1c-2.5,0-4.8.67-6.85,1.99-2.06,1.33-3.72,3.19-4.94,5.54-1.22,2.35-1.84,5.12-1.84,8.22s.62,5.81,1.84,8.16c1.22,2.35,2.9,4.21,5,5.54,2.09,1.33,4.46,2,7.03,2,1.41,0,2.73-.23,3.93-.7,1.22-.47,2.29-1.04,3.18-1.71.59-.45,1.1-.89,1.53-1.34v-3.58l2.44,1v.39c0,.64-.31,1.36-.94,2.2-.11.14-.22.28-.34.42.05.75.32,1.36.83,1.88.56.57,1.25.85,2.11.85s1.56-.28,2.11-.85c.56-.58.84-1.29.84-2.15v-24.85c0-.9-.27-1.62-.83-2.18-.56-.56-1.25-.83-2.12-.83s-1.55.28-2.11.85c-.53.54-.8,1.19-.83,1.99.45.44.84.89,1.15,1.33.64.91.96,1.69.96,2.36v.4l-3.27,1.18v-4.78c-.28-.25-.59-.5-.92-.75-.99-.74-2.17-1.37-3.52-1.86-1.34-.48-2.84-.73-4.44-.73ZM516.17,59.94v.24c.03-.08.06-.14.08-.21l-.08-.03ZM516.17,38.65v1.92l.9-.33c-.08-.31-.28-.73-.69-1.31-.07-.1-.14-.19-.22-.29ZM507.25,60.25c-1.79,0-3.4-.47-4.78-1.39-1.37-.91-2.46-2.18-3.22-3.75-.76-1.56-1.14-3.32-1.14-5.25s.38-3.75,1.14-5.31c.77-1.57,1.85-2.84,3.22-3.75,1.38-.92,2.99-1.39,4.78-1.39s3.46.47,4.84,1.39c1.37.91,2.46,2.17,3.22,3.75.76,1.56,1.14,3.35,1.14,5.31s-.38,3.69-1.14,5.25c-.77,1.58-1.85,2.84-3.22,3.75-1.38.92-3.01,1.39-4.84,1.39ZM507.25,40.57c-1.56,0-2.95.4-4.14,1.2-1.2.8-2.15,1.91-2.83,3.3-.68,1.4-1.03,3.02-1.03,4.8s.35,3.34,1.03,4.74c.67,1.39,1.63,2.5,2.83,3.3,1.19.79,2.58,1.2,4.14,1.2s3.01-.4,4.2-1.2c1.2-.8,2.15-1.91,2.83-3.3.68-1.4,1.03-3,1.03-4.74s-.35-3.4-1.03-4.8c-.68-1.39-1.63-2.5-2.83-3.3-1.19-.79-2.61-1.2-4.2-1.2Z" style="fill: #134b24; stroke-width: 0px;"/>
    </g>
    <g>
      <path d="M547.08,33.53c2.9,0,5.1.61,6.61,1.82,1.51,1.21,2.55,2.83,3.11,4.85.57,2.02.85,4.26.85,6.73v15.04c0,1.02-.33,1.87-1,2.56-.67.69-1.51,1.03-2.53,1.03s-1.86-.34-2.53-1.03c-.67-.69-1-1.54-1-2.56v-15.04c0-1.29-.17-2.46-.5-3.49-.33-1.04-.93-1.87-1.79-2.5-.86-.63-2.1-.94-3.7-.94s-2.89.31-3.97.94c-1.08.63-1.9,1.46-2.47,2.5-.57,1.04-.85,2.2-.85,3.49v15.04c0,1.02-.33,1.87-1,2.56-.67.69-1.51,1.03-2.53,1.03s-1.86-.34-2.53-1.03c-.67-.69-1-1.54-1-2.56v-24.26c0-1.02.33-1.87,1-2.56.67-.68,1.51-1.03,2.53-1.03s1.86.34,2.53,1.03c.67.69,1,1.54,1,2.56v2.53l-.88-.18c.35-.67.86-1.38,1.53-2.14.66-.76,1.45-1.48,2.35-2.14.9-.67,1.92-1.2,3.05-1.62,1.14-.41,2.37-.62,3.7-.62Z" style="fill: #134b24; stroke-width: 0px;"/>
      <path d="M554.13,66.12c-1.18,0-2.17-.4-2.94-1.2-.77-.79-1.16-1.79-1.16-2.96v-15.04c0-1.23-.16-2.34-.47-3.32-.3-.93-.82-1.65-1.58-2.21-.76-.55-1.89-.83-3.36-.83s-2.69.29-3.67.86c-.98.57-1.74,1.33-2.25,2.27-.52.95-.78,2.03-.78,3.22v15.04c0,1.17-.39,2.16-1.16,2.96-.78.8-1.76,1.2-2.94,1.2s-2.17-.4-2.94-1.2c-.77-.79-1.16-1.79-1.16-2.96v-24.26c0-1.17.39-2.16,1.16-2.96.77-.8,1.76-1.2,2.94-1.2s2.16.4,2.94,1.2c.65.67,1.03,1.48,1.13,2.41.61-.65,1.32-1.28,2.11-1.86.94-.7,2.02-1.27,3.2-1.69,1.19-.43,2.5-.65,3.9-.65,3.02,0,5.36.66,6.97,1.95,1.6,1.29,2.71,3.01,3.31,5.14.58,2.06.87,4.38.87,6.88v15.04c0,1.17-.39,2.16-1.16,2.96-.77.8-1.76,1.2-2.94,1.2ZM544.61,39.41c1.72,0,3.08.35,4.04,1.05s1.63,1.63,2,2.79c.35,1.09.53,2.32.53,3.67v15.04c0,.87.27,1.58.84,2.15.56.57,1.25.85,2.11.85s1.55-.28,2.11-.85c.56-.58.84-1.28.84-2.15v-15.04c0-2.4-.28-4.61-.83-6.57-.53-1.89-1.52-3.42-2.92-4.55-1.4-1.12-3.5-1.69-6.25-1.69-1.26,0-2.44.2-3.5.58-1.08.39-2.05.91-2.91,1.54-.87.64-1.63,1.33-2.26,2.06-.18.21-.35.41-.51.61v2.04l-2.33-.47.36-.68c.22-.41.49-.84.82-1.28v-.8c0-.87-.27-1.57-.84-2.15-.56-.57-1.25-.85-2.11-.85s-1.55.28-2.11.85c-.56.58-.84,1.28-.84,2.15v24.26c0,.87.27,1.58.84,2.15.56.57,1.25.85,2.11.85s1.56-.28,2.11-.85c.56-.58.84-1.29.84-2.15v-15.04c0-1.39.31-2.65.92-3.77.62-1.13,1.52-2.04,2.68-2.72,1.16-.68,2.59-1.02,4.25-1.02Z" style="fill: #134b24; stroke-width: 0px;"/>
    </g>
    <g>
      <path d="M582.09,33.53c2.9,0,5.1.61,6.61,1.82,1.51,1.21,2.55,2.83,3.11,4.85.57,2.02.85,4.26.85,6.73v15.04c0,1.02-.33,1.87-1,2.56-.67.69-1.51,1.03-2.53,1.03s-1.86-.34-2.53-1.03c-.67-.69-1-1.54-1-2.56v-15.04c0-1.29-.17-2.46-.5-3.49-.33-1.04-.93-1.87-1.79-2.5-.86-.63-2.1-.94-3.7-.94s-2.89.31-3.97.94c-1.08.63-1.9,1.46-2.47,2.5-.57,1.04-.85,2.2-.85,3.49v15.04c0,1.02-.33,1.87-1,2.56-.67.69-1.51,1.03-2.53,1.03s-1.86-.34-2.53-1.03c-.67-.69-1-1.54-1-2.56v-24.26c0-1.02.33-1.87,1-2.56.67-.68,1.51-1.03,2.53-1.03s1.86.34,2.53,1.03c.67.69,1,1.54,1,2.56v2.53l-.88-.18c.35-.67.86-1.38,1.53-2.14.66-.76,1.45-1.48,2.35-2.14.9-.67,1.92-1.2,3.05-1.62,1.14-.41,2.37-.62,3.7-.62Z" style="fill: #134b24; stroke-width: 0px;"/>
      <path d="M589.14,66.12c-1.18,0-2.17-.4-2.94-1.2-.77-.79-1.16-1.79-1.16-2.96v-15.04c0-1.23-.16-2.34-.47-3.32-.3-.93-.82-1.65-1.58-2.21-.76-.55-1.89-.83-3.36-.83s-2.69.29-3.67.86c-.98.57-1.74,1.33-2.25,2.27-.52.95-.78,2.03-.78,3.22v15.04c0,1.17-.39,2.16-1.16,2.96-.77.8-1.76,1.2-2.94,1.2s-2.17-.4-2.94-1.2c-.77-.79-1.16-1.79-1.16-2.96v-24.26c0-1.17.39-2.16,1.16-2.96.78-.8,1.76-1.2,2.94-1.2s2.16.4,2.94,1.2c.65.67,1.03,1.48,1.13,2.41.61-.65,1.32-1.28,2.11-1.86.94-.7,2.02-1.27,3.2-1.69,1.19-.43,2.5-.65,3.9-.65,3.02,0,5.36.66,6.97,1.95,1.6,1.29,2.71,3.02,3.31,5.14.58,2.06.87,4.38.87,6.88v15.04c0,1.17-.39,2.16-1.16,2.96-.78.8-1.76,1.2-2.94,1.2ZM579.62,39.41c1.72,0,3.08.35,4.04,1.05.96.7,1.63,1.64,2,2.79.35,1.09.53,2.33.53,3.67v15.04c0,.87.27,1.58.84,2.15.56.57,1.25.85,2.11.85s1.56-.28,2.11-.85c.56-.58.84-1.29.84-2.15v-15.04c0-2.4-.28-4.61-.83-6.57-.53-1.89-1.52-3.42-2.92-4.55-1.4-1.12-3.5-1.69-6.25-1.69-1.26,0-2.44.2-3.5.58-1.08.39-2.05.91-2.91,1.54-.87.64-1.62,1.33-2.26,2.06-.18.21-.35.41-.5.61v2.04l-2.33-.47.36-.68c.22-.41.49-.84.81-1.28v-.8c0-.87-.27-1.57-.84-2.15-.56-.57-1.25-.85-2.11-.85s-1.55.28-2.11.85c-.56.58-.83,1.28-.83,2.15v24.26c0,.87.27,1.58.83,2.15.56.57,1.25.85,2.11.85s1.55-.28,2.11-.85c.56-.58.84-1.28.84-2.15v-15.04c0-1.38.31-2.65.92-3.77.62-1.13,1.52-2.04,2.68-2.72,1.16-.68,2.59-1.02,4.25-1.02Z" style="fill: #134b24; stroke-width: 0px;"/>
    </g>
  </g>
</svg>